<svg id="visual" viewBox="0 0 900 600" width="900" height="600" xmlns="http://www.w3.org/2000/svg" xmlns:xlink="http://www.w3.org/1999/xlink" version="1.1"><rect x="0" y="0" width="900" height="600" fill="#002233"></rect><path d="M0 444L25 456.2C50 468.3 100 492.7 150 502.2C200 511.7 250 506.3 300 502.2C350 498 400 495 450 482.8C500 470.7 550 449.3 600 436.3C650 423.3 700 418.7 750 435.5C800 452.3 850 490.7 875 509.8L900 529L900 601L875 601C850 601 800 601 750 601C700 601 650 601 600 601C550 601 500 601 450 601C400 601 350 601 300 601C250 601 200 601 150 601C100 601 50 601 25 601L0 601Z" fill="#0066FF" stroke-linecap="round" stroke-linejoin="miter"></path></svg>